<svg data-v-13edab76="" version="1.0" xmlns="http://www.w3.org/2000/svg" xmlns:xlink="http://www.w3.org/1999/xlink" width="100%" height="100%" viewBox="0 0 340.000000 250.000000" preserveAspectRatio="xMidYMid meet" color-interpolation-filters="sRGB" class="el-tooltip" style="margin: auto;">
	<g data-v-13edab76="" fill="#ff0036" class="icon-text-wrapper icon-svg-group iconsvg" transform="translate(78.50341796875,94.14239311218262)"><g class="iconsvg-imagesvg" transform="translate(0,0)"><rect fill="#ff0036" fill-opacity="0" stroke-width="2" x="0" y="0" width="60" height="61.69230769230744"></rect> <svg x="0" y="0" width="60" height="61.69230769230744" class="imagesvg-svg"><svg xmlns="http://www.w3.org/2000/svg" viewBox="0 0 117 120.3"><path d="M99.5 28c-8.7-7.8-19.4-12-30.9-13.4-11.5-1.4-23.5-1.2-34.5 2.8-3.8 1.4-7.5 3.2-10.8 5.5-7.9 5.4-14 13.2-18.1 21.9-8.4 18-6.9 41 6.1 56 7.6 8.8 18.5 14.3 29.8 17.2 19.4 5 41.6 2.1 57-10.8 11.5-9.6 18.6-24.3 18.9-39.3.2-15.4-6.5-29.9-17.5-39.9z" fill="#ff0036"></path><path d="M72.5 63.7c1.9.7 4 .6 5.8-.3 1.8-.9 3.1-2.7 3.4-4.7 1.4-9.2-14.8-10.5-13.5-.3.2 2.4 2.1 4.5 4.3 5.3zM38.3 64c1.9.7 4 .6 5.8-.3 1.8-.9 3.1-2.7 3.4-4.7 1.4-9.2-14.8-10.5-13.5-.3.2 2.4 2 4.5 4.3 5.3z" fill="#f2a638"></path><path d="M93.3 77.3c-4.7-1.8-10.2.3-14.9-1.5-3.6-1.4-6-4.8-8.5-7.8-2.6-3.1-5.8-6.6-10.1-6.2-4.3.3-8 3.1-10.7 6.2-2.5 3-4.9 6.4-8.5 7.8-4.7 1.8-10.2-.4-14.9 1.5-1.4.5-2.8 1.9-2.2 3.3.3.6.9 1 1.5 1.3 2.1 1.1 4.3 2.1 6.6 3 2.5.9 5.3 1.8 7.1 3.8 2.6 3 2.3 7.4 3.3 11.3 1.6 6.5 7.6 11.7 14.3 12.4 1 .1 2.1.1 3.1-.1 1 .2 2.1.2 3.1.1 6.7-.7 12.7-5.9 14.3-12.4 1-3.9.7-8.3 3.3-11.3 1.8-2 4.6-2.8 7.1-3.8 2.3-.8 4.5-1.8 6.6-3 .6-.3 1.3-.7 1.5-1.3.8-1.4-.7-2.8-2-3.3z" fill="#ffc94e"></path><path d="M47.7 77.4c-.6.7-1 1.7-.9 2.6.1 1.7 1.8 2.9 3.5 2.9s3.2-.9 4.4-2.1c1.8-1.8 3.4-5.2 2-7.7-1.3-2.4-3.8-.9-5.1.5-1.3 1.3-2.8 2.4-3.9 3.8zM70.7 77.4c.6.7 1 1.7.9 2.6-.1 1.7-1.8 2.9-3.5 2.9s-3.2-.9-4.4-2.1c-1.8-1.8-3.4-5.2-2-7.7 1.3-2.4 3.8-.9 5.1.5 1.3 1.3 2.8 2.4 3.9 3.8z" fill="#f2a638"></path><path d="M39.1 14.4c.2-.8 1-1.3 1.8-1.6 3.1-1.3 6.8-.9 9.6 1 0-1.5-.7-2.9-1.1-4.3-.5-1.4-.8-3-.1-4.3.6-1 1.8-1.6 3-1.5 1.2.2 2.2 1.1 2.5 2.2.3 1.1-.1 2.3.1 3.4s1.2 2.3 2.2 1.9c.8-.3.9-1.4 1.1-2.2.4-2.7 1.5-5.3 3.2-7.5.8-1 2.1-2 3.1-1.3.7.5.8 1.5.8 2.3.1 2.5.2 5 .3 7.4C67 8.3 68.5 6.7 70 5c.6-.7 1.6-1.4 2.2-.7.4.4.2 1.1.1 1.6-.8 2.5-1.5 5.1-2.3 7.6 2.6-.7 4.3-3.6 7-3.5 1.9.1 3.4 2 3.5 3.9.1 1.9-1.1 3.7-2.6 4.9-1.5 1.2-3.4 1.7-5.3 2.2-5.6 1.4-11.4 1.6-17.2 1.4-4.1-.2-7.7-.3-11.3-2.6-1.5-1.1-5.6-3-5-5.4z" fill="#ff0036"></path></svg></svg> <!----></g> 
	<g transform="translate(67.0171890258789,3.039043426513672)">
		<g class="tp-name iconsvg-namesvg" transform="translate(0,0)">
			<g><path d="M21.48 3.75L21.48-32.58L27.11-32.58L27.11 3.75L21.48 3.75ZM33.67-23.36L27.97-23.36L31.48-5.86L37.11-5.86L33.67-23.36ZM19.92-21.48L16.02-21.48L14.69-18.13L13.52-19.30L16.95-27.27L16.95-27.27Q17.81-29.18 15.55-29.22L15.55-29.22L13.52-29.22L13.52-32.42L8.05-32.42L8.05-29.22L2.58-29.22L2.58-26.25L10.23-26.25L1.95-7.34L7.97-7.34L7.97 3.59L13.67 3.59L13.67-12.42L19.06-7.03L19.06-14.14L17.81-15.55L19.92-21.48ZM72.03 1.17L66.25 1.17L66.25-14.92L70.47-14.92L70.47-14.92Q72.19-15.08 72.03-13.36L72.03-13.36L72.03 1.17ZM71.56-29.06L71.56-33.20L65.94-33.20L65.94-17.89L60.63-17.89L60.63 4.22L77.66 4.22L77.66-13.52L77.66-13.52Q77.70-16.02 76.74-16.97L76.74-16.97L76.74-16.97Q75.78-17.93 73.28-17.89L73.28-17.89L71.56-17.89L71.56-26.02L78.28-26.02L78.28-29.06L71.56-29.06ZM59.38-6.09L59.38-27.81L59.38-27.81Q59.41-30.31 58.46-31.27L58.46-31.27L58.46-31.27Q57.50-32.23 55-32.19L55-32.19L42.34-32.19L42.34-6.09L47.19-6.09L47.19-29.22L52.97-29.22L52.97-29.22Q54.69-29.38 54.53-27.66L54.53-27.66L54.53-6.09L59.38-6.09ZM53.13-26.41L48.59-26.41L48.59-6.88L41.17 4.22L47.34 4.22L50.70-0.94L53.75 4.22L59.84 4.22L53.13-6.88L53.13-26.41ZM106.33-25.86L107.34-20.16L111.64-20.16L110.55-25.86L106.33-25.86ZM87.03-28.83L88.75-28.83L88.75-18.83L87.03-18.83L87.03-28.83ZM94.77-27.50L94.77-18.83L92.97-18.83L92.97-28.83L93.44-28.83L93.44-28.83Q94.84-28.91 94.77-27.50L94.77-27.50ZM87.03-15.86L88.75-15.86L88.75-5.63L87.03-5.63L87.03-15.86ZM92.97-15.86L94.77-15.86L94.77-5.63L92.97-5.63L92.97-15.86ZM82.34-31.88L82.34-2.66L88.20-2.66L88.20 4.14L93.52 4.14L93.52-2.66L99.22-2.66L99.22-27.50L99.22-27.50Q99.26-30 98.30-30.96L98.30-30.96L98.30-30.96Q97.34-31.91 94.84-31.88L94.84-31.88L82.34-31.88ZM100.78-11.72L111.25-11.72L111.25-11.72Q112.93-11.91 112.73-10.23L112.73-10.23L112.27 1.17L107.50 1.17L107.50 4.14L117.34 4.14L117.89-10.39L117.89-10.39Q118.05-12.89 117.15-13.81L117.15-13.81L117.15-13.81Q116.25-14.73 113.75-14.69L113.75-14.69L105.94-14.69L105.94-27.66L110.86-27.66L110.86-27.66Q112.54-27.85 112.34-26.17L112.34-26.17L112.27-19.30L111.48-19.30L111.48-16.80L117.03-16.80L117.19-26.72L117.19-26.72Q117.30-29.14 116.54-29.90L116.54-29.90L116.54-29.90Q115.78-30.66 113.36-30.63L113.36-30.63L111.48-30.63L112.42-32.97L106.56-32.97L105.47-30.63L100.78-30.63L100.78-11.72ZM111.41-6.88L100.70-6.88L100.70-3.91L111.41-3.91L111.41-6.88Z" transform="translate(-1.953125, 33.203125)"></path></g> <!----> <!----> <!----> <!----> <!----> <!----> <!----></g> 
			<g class="tp-slogan iconsvg-slogansvg" fill="#ff0036" transform="translate(2.7320785522460938,39.20125198364258)"><!----> <!----> <!----> 
				<g>
					<path d="M1.31 0L5.64 0C9.10 0 10.05-1.26 10.05-3.40C10.05-4.88 9.35-5.78 7.97-6.14L7.97-6.21C9.27-6.56 9.69-7.40 9.69-8.62C9.69-10.74 8.74-11.80 5.29-11.80L1.31-11.80ZM3.89-6.94L3.89-9.74L4.76-9.74C6.46-9.74 7.14-9.57 7.14-8.35C7.14-7.19 6.44-6.94 4.76-6.94ZM3.89-2.07L3.89-5.07L5.08-5.07C6.92-5.07 7.43-4.68 7.43-3.57C7.43-2.36 6.90-2.07 5.08-2.07ZM19.05-9.18L19.05-3.11C18.77-2.16 18.10-1.84 17.15-1.84C15.94-1.84 15.65-2.35 15.65-3.55L15.65-9.18L13.19-9.18L13.19-2.89C13.19-0.90 14.01 0.17 16.27 0.17C17.63 0.17 18.56-0.22 19.09-1.10L19.27 0L21.50 0L21.50-9.18ZM29.54-7.24L29.54-9.18L27.64-9.18L27.64-11.36L25.17-11.36L25.17-9.18L23.96-9.18L23.96-7.24L25.17-7.24L25.17-2.94C25.17-0.53 25.97 0.10 28.23 0.10C28.64 0.10 29.06 0.07 29.42 0.02L29.42-1.89C29.23-1.84 28.98-1.82 28.69-1.82C27.82-1.82 27.64-2.07 27.64-3.15L27.64-7.24ZM33.26-10.46C34.38-10.46 34.64-10.61 34.64-11.76C34.64-12.92 34.38-13.04 33.26-13.04C32.16-13.04 31.88-12.92 31.88-11.76C31.88-10.61 32.16-10.46 33.26-10.46ZM32.02 0L34.48 0L34.48-9.18L32.02-9.18ZM45.92-5.32C45.92-7.68 45.19-9.35 42.00-9.35C39.12-9.35 37.46-8.31 37.46-4.59C37.46-0.87 39.12 0.17 41.93 0.17C43.53 0.17 44.90-0.15 45.45-0.48L45.45-2.41C44.85-2.09 43.53-1.77 42.40-1.77C40.77-1.77 40.01-2.36 39.92-3.67L45.84-4.05C45.89-4.30 45.92-4.79 45.92-5.32ZM39.92-5.39C39.97-6.83 40.48-7.50 42.00-7.50C43.44-7.50 43.68-6.68 43.68-5.68ZM48.93 3.40C52.14 3.40 53.13 2.43 54.35-0.85L57.43-9.18L54.78-9.18L52.74-2.64L52.63-2.64L50.48-9.18L47.74-9.18L51.31-0.09C51.04 0.85 50.48 1.28 48.93 1.28ZM62.95-9.33C62.29-9.33 61.40-9.28 60.71-9.20L60.71-7.11C61.34-7.23 62.00-7.28 62.66-7.28C64.28-7.28 64.62-6.85 64.62-5.76L64.62-5.53L62.34-5.53C59.87-5.53 58.56-4.76 58.56-2.64C58.56-0.73 59.65 0.17 61.71 0.17C63.22 0.17 64.24-0.39 64.63-1.07L64.87 0L67.08 0L67.08-6.36C67.08-8.30 66.03-9.33 62.95-9.33ZM62.34-1.72C61.39-1.72 61.00-1.99 61.00-2.72C61.00-3.66 61.49-3.86 62.71-3.86L64.62-3.86L64.62-2.79C64.29-2.16 63.48-1.72 62.34-1.72ZM72.18 0.10C73.47 0.10 73.67-0.12 73.67-1.41C73.67-2.72 73.47-2.92 72.18-2.92C70.87-2.92 70.68-2.72 70.68-1.41C70.68-0.12 70.87 0.10 72.18 0.10ZM81.27 0.17C82.12 0.17 83.19 0.03 83.72-0.19L83.72-2.21C83.06-1.96 82.38-1.87 81.64-1.87C79.96-1.87 79.26-2.47 79.26-4.59C79.26-6.72 79.96-7.33 81.59-7.33C82.36-7.33 83.04-7.21 83.63-6.99L83.63-9.06C83.07-9.25 82.17-9.35 81.27-9.35C78.41-9.35 76.73-8.31 76.73-4.59C76.73-0.87 78.41 0.17 81.27 0.17ZM90.72 0.17C93.56 0.17 95.21-0.87 95.21-4.59C95.21-8.31 93.56-9.35 90.72-9.35C87.86-9.35 86.21-8.31 86.21-4.59C86.21-0.87 87.86 0.17 90.72 0.17ZM90.72-1.70C89.24-1.70 88.75-2.35 88.75-4.59C88.75-6.82 89.21-7.51 90.72-7.51C92.20-7.51 92.69-6.82 92.69-4.59C92.69-2.35 92.23-1.70 90.72-1.70ZM108.75-9.35C107.39-9.35 106.37-8.99 105.88-8.06C105.47-8.93 104.64-9.35 103.26-9.35C101.97-9.35 101.17-8.96 100.68-8.14L100.68-9.18L98.21-9.18L98.21 0L100.68 0L100.68-6.10C100.93-7.00 101.36-7.34 102.38-7.34C103.38-7.34 103.74-6.87 103.74-5.63L103.74 0L106.20 0L106.20-6.00C106.42-6.97 106.95-7.34 107.95-7.34C108.99-7.34 109.35-6.87 109.35-5.63L109.35 0L111.81 0L111.81-6.09C111.81-8.38 110.81-9.35 108.75-9.35Z" transform="translate(-1.309, 13.039)"></path>
				</g>
			</g>
		</g>
	</g>
</svg>