
<svg version="1.0" xmlns="http://www.w3.org/2000/svg" xmlns:xlink="http://www.w3.org/1999/xlink" width="100%" height="100%" viewBox="0 0 340.000000 250.000000" preserveAspectRatio="xMidYMid meet" color-interpolation-filters="sRGB" style="margin: auto;
transform:skewX(-5deg);
-ms-transform:skewX(-5deg);
-moz-transform:skewX(-5deg);
-webkit-transform:skewX(-5deg);
-o-transform:skewX(-5deg);">
	<g fill="#000">
		<path d="M3.48-22.48C2.76-22.48 2.16-23.04 2.16-23.76L2.16-23.80C2.16-24.56 2.76-25.12 3.48-25.12L18.44-25.12C19.12-25.12 19.76-24.56 19.76-23.80L19.76-23.76C19.76-23.04 19.12-22.48 18.44-22.48L12.28-22.48L12.28 2.44C12.28 3.20 11.68 3.76 10.96 3.76L10.88 3.76C10.16 3.76 9.56 3.20 9.56 2.44L9.56-22.48ZM23.36-31.32C23.36-32.08 23.92-32.64 24.68-32.64L24.72-32.64C25.48-32.64 26.04-32.08 26.04-31.32L26.04 2.36C26.04 3.12 25.48 3.68 24.72 3.68L24.68 3.68C23.92 3.68 23.36 3.12 23.36 2.36ZM37.96-2.44C38.08-1.68 37.64-1.04 36.92-0.88C36.52-0.80 36.20-0.84 35.88-1.08C35.60-1.28 35.40-1.56 35.32-1.96L31.24-24.24C31.08-24.96 31.56-25.64 32.24-25.80L32.32-25.80C33.04-25.96 33.76-25.48 33.84-24.72ZM4.04-19.28C4.04-20 4.64-20.56 5.40-20.56L5.48-20.52C6.16-20.52 6.76-19.88 6.72-19.20L6.12 2.36C6.08 3.04 5.52 3.64 4.80 3.64L4.72 3.64C4 3.60 3.40 3 3.40 2.28ZM15.84-12.24C15.84-12.96 16.44-13.56 17.16-13.56L17.24-13.56C17.96-13.56 18.56-12.96 18.56-12.24L18.56 2.44C18.56 3.20 17.96 3.76 17.24 3.76L17.16 3.76C16.44 3.76 15.84 3.20 15.84 2.44ZM4.12-28.84C3.36-28.84 2.80-29.44 2.80-30.16L2.80-30.24C2.80-30.92 3.36-31.56 4.12-31.56L17.76-31.56C18.52-31.56 19.08-30.92 19.08-30.24L19.08-30.16C19.08-29.44 18.52-28.84 17.76-28.84ZM15.84-19.24C15.84-19.92 16.44-20.56 17.16-20.56L17.24-20.56C17.96-20.56 18.56-19.92 18.56-19.24L18.56-17.04C18.56-16.36 17.96-15.72 17.24-15.72L17.16-15.72C16.44-15.72 15.84-16.36 15.84-17.04ZM66.92-31.20C66.92-31.88 67.52-32.52 68.24-32.52L68.28-32.52C69.04-32.52 69.60-31.88 69.60-31.20L69.60-27.48L76.52-27.48C77.24-27.48 77.84-26.88 77.84-26.16L77.84-26.08C77.84-25.40 77.24-24.76 76.52-24.76L69.60-24.76L69.60-16.52L73.96-16.52C74.52-16.52 75.08-16.40 75.60-16.20C77.16-15.48 78.24-14.04 78.24-12.28L78.24-0.56C78.24 1.20 77.16 2.68 75.60 3.36C75.08 3.60 74.52 3.72 73.96 3.72L63.20 3.72C62.60 3.72 62.04 3.60 61.52 3.36C60.44 2.92 59.68 2.16 59.24 1.08C59.04 0.60 58.92 0.04 58.92-0.56L58.92-12.28C58.92-13.40 59.36-14.48 60.16-15.28C60.52-15.64 61-15.96 61.52-16.20C62.04-16.40 62.60-16.52 63.20-16.52L66.92-16.52ZM73.96 1.04C74.40 1.04 74.80 0.88 75.08 0.60C75.36 0.28 75.52-0.08 75.52-0.56L75.52-12.28C75.52-12.76 75.36-13.12 75.08-13.40C74.80-13.72 74.40-13.80 73.96-13.80L63.20-13.80C62.28-13.80 61.64-13.20 61.64-12.28L61.64-0.56C61.64 0.36 62.28 1.04 63.20 1.04ZM42.44-27.48C42.44-28.08 42.56-28.60 42.76-29.12C43.44-30.72 44.92-31.76 46.68-31.76L52.96-31.76C54.08-31.76 55.20-31.32 55.96-30.48C56.36-30.12 56.64-29.64 56.88-29.12C57.08-28.60 57.20-28.08 57.20-27.48L57.20-8.68C57.20-7.96 56.60-7.36 55.88-7.36L55.80-7.36C55.12-7.36 54.48-7.96 54.48-8.68L54.48-27.48C54.48-27.92 54.32-28.32 54.04-28.60C53.80-28.92 53.40-29.04 52.96-29.04L46.68-29.04C46.24-29.04 45.88-28.92 45.60-28.60C45.28-28.32 45.16-27.92 45.16-27.48L45.16-8.68C45.16-7.96 44.56-7.36 43.84-7.36L43.76-7.36C43-7.36 42.44-7.96 42.44-8.68ZM51.08-18.68C51.08-16.12 51-13.80 50.84-11.80C50.76-11.04 50.64-10.28 50.52-9.56C50.68-9.48 50.80-9.32 50.92-9.20L57.76-0.32C58.20 0.20 58.08 1.08 57.52 1.52L57.48 1.52C56.92 1.96 56.08 1.92 55.64 1.32L49.76-6.32C49.20-4.56 48.48-2.88 47.52-1.24C46.80 0.04 45.84 1.36 44.72 2.72C44.52 3 44.20 3.16 43.84 3.20C43.44 3.24 43.12 3.12 42.84 2.84C42.28 2.40 42.20 1.56 42.64 1.04C44.72-1.52 46.24-4.08 47.16-7.12C47.64-8.72 47.96-10.44 48.16-12.32C48.28-14.20 48.40-16.32 48.40-18.68L48.40-23.76C48.40-24.52 49-25.08 49.72-25.08L49.76-25.08C50.48-25.08 51.08-24.52 51.08-23.76ZM94.04-32.56C96.12-32.56 97.84-31.36 98.64-29.48C98.88-28.84 99.04-28.24 99.04-27.52L99.04-10.72C99.04-10 98.88-9.40 98.64-8.76C97.84-6.92 96.12-5.68 94.04-5.68L91.80-5.68L91.80 2.24C91.80 3 91.20 3.56 90.48 3.56L90.44 3.56C89.68 3.56 89.12 3 89.12 2.24L89.12-5.68L86.80-5.68C84.76-5.68 83.04-6.92 82.20-8.76C81.96-9.40 81.80-10 81.80-10.72L81.80-27.52C81.80-28.24 81.96-28.84 82.20-29.48C83.04-31.36 84.76-32.56 86.80-32.56ZM113.12-18.60C113.56-18.60 113.92-18.72 114.20-19.04C114.48-19.36 114.64-19.72 114.64-20.16L114.64-25.92C114.64-26.36 114.48-26.72 114.20-27.04C113.92-27.36 113.56-27.48 113.12-27.48L104.64-27.48C104.20-27.48 103.84-27.36 103.56-27.04C103.24-26.72 103.12-26.36 103.12-25.92L103.12-15.40C103.12-14.48 103.72-13.84 104.64-13.84L113.68-13.84C115.44-13.84 116.92-12.80 117.60-11.24C117.84-10.72 117.96-10.16 117.96-9.56L117.96-0.84C117.96-0.28 117.84 0.28 117.60 0.80C116.92 2.36 115.44 3.40 113.68 3.40L104.72 3.40C104.04 3.40 103.44 2.80 103.44 2.12L103.44 2C103.44 1.28 104.04 0.68 104.72 0.68L113.68 0.68C114.60 0.68 115.24 0.04 115.24-0.84L115.24-4.24L100.92-4.24C100.16-4.24 99.60-4.80 99.60-5.56L99.60-5.64C99.60-6.32 100.16-6.92 100.92-6.92L115.24-6.92L115.24-9.56C115.24-10 115.12-10.40 114.84-10.72C114.52-11 114.16-11.16 113.68-11.16L104.64-11.16C102.32-11.16 100.44-13.04 100.44-15.40L100.44-25.92C100.44-26.52 100.52-27.04 100.76-27.56C101.40-29.12 102.84-30.12 104.56-30.16L104.56-31.40C104.56-32.12 105.16-32.72 105.88-32.72L105.92-32.72C106.64-32.72 107.24-32.12 107.24-31.40L107.24-30.16L113.12-30.16C114.28-30.16 115.32-29.72 116.12-28.92C116.92-28.12 117.40-27.04 117.40-25.92L117.40-20.16C117.40-19.04 116.92-17.96 116.12-17.16C115.32-16.36 114.28-15.92 113.12-15.92L112.16-15.92C111.44-15.92 110.88-16.52 110.88-17.20L110.88-17.28C110.88-18 111.44-18.60 112.16-18.60ZM86.80-29.84C86.16-29.84 85.64-29.64 85.20-29.20C84.76-28.76 84.48-28.20 84.48-27.52L84.48-20.12L89.12-20.12L89.12-29.84ZM96.32-27.52C96.32-28.20 96.12-28.76 95.68-29.20C95.24-29.64 94.68-29.84 94.04-29.84L91.80-29.84L91.80-20.12L96.32-20.12ZM85.20-9.08C85.64-8.64 86.16-8.40 86.80-8.40L89.12-8.40L89.12-17.44L84.48-17.44L84.48-10.72C84.48-10.04 84.76-9.52 85.20-9.08ZM94.04-8.40C94.68-8.40 95.24-8.64 95.68-9.08C96.12-9.52 96.32-10.04 96.32-10.72L96.32-17.44L91.80-17.44L91.80-8.40ZM110.20-19.92C110.56-19.28 110.28-18.48 109.64-18.16L109.56-18.12C108.92-17.80 108.12-18.04 107.80-18.68L105.32-23.48C104.96-24.12 105.24-24.92 105.84-25.28L105.92-25.28C106.60-25.60 107.36-25.36 107.68-24.72Z" transform="translate(-2.16, 32.72)"></path>
	</g>
</svg>


